<?xml version="1.0" standalone="no"?><!DOCTYPE svg PUBLIC "-//W3C//DTD SVG 1.1//EN" "http://www.w3.org/Graphics/SVG/1.1/DTD/svg11.dtd"><svg t="1537363703582" class="icon" style="" viewBox="0 0 1024 1024" version="1.1" xmlns="http://www.w3.org/2000/svg" p-id="8479" xmlns:xlink="http://www.w3.org/1999/xlink" width="16" height="16"><defs><style type="text/css"></style></defs><path d="M182.642688 245.79072h12.193792c196.558848 0 393.117696-0.004096 589.678592 0.002048 45.611008 0 75.610112 29.935616 75.614208 75.446272 0.008192 124.215296 0.002048 248.430592 0.002048 372.64384v12.6464h-12.304384c-102.033408 0-204.068864 0.229376-306.098176-0.231424-16.357376-0.073728-31.197184 3.258368-44.599296 11.966464-28.85632 18.74944-57.266176 38.187008-86.040576 57.061376-17.082368 11.208704-34.463744 21.968896-51.832832 32.729088-3.434496 2.127872-7.34208 3.590144-11.177984 4.952064-12.71808 4.51584-17.176576 2.009088-16.119808-11.122688 1.472512-18.282496 4.634624-36.425728 6.989824-54.64064 1.220608-9.443328 2.299904-18.907136 3.3792-28.370944 1.017856-8.916992-2.074624-12.795904-11.964416-12.562432-26.60352 0.628736-53.233664 0.473088-79.845376 0.135168-36.102144-0.462848-68.067328-32.315392-68.12672-68.43392-0.208896-128.309248-0.086016-256.618496-0.077824-384.927744 0.002048-1.994752 0.176128-3.9936 0.329728-7.292928z m177.7152 532.273152c14.864384-10.018816 28.010496-18.997248 41.275392-27.793408 28.116992-18.644992 56.059904-37.568512 84.539392-55.640064 16.427008-10.42432 34.72384-14.393344 54.515712-14.292992 93.513728 0.47104 187.031552 0.210944 280.547328 0.210944h12.31872c0.258048-3.289088 0.550912-5.267456 0.550912-7.245824 0.018432-118.089728 0.155648-236.181504-0.09216-354.271232-0.06144-29.30688-18.919424-47.071232-48.728064-47.079424-188.739584-0.043008-377.479168-0.024576-566.2208 0-3.284992 0-6.569984 0.335872-10.631168 0.555008v10.9056c0 115.70176 0.505856 231.407616-0.374784 347.101184-0.206848 27.062272 19.224576 51.492864 50.419712 50.23744 25.556992-1.026048 51.187712-0.37888 76.783616-0.141312 18.952192 0.17408 31.848448 12.023808 33.046528 30.599168 0.50176 7.763968-0.034816 15.699968-1.046528 23.435264-1.798144 13.756416-4.315136 27.418624-6.903808 43.419648z" fill="" p-id="8480"></path><path d="M346.525696 409.632768c37.455872 0.067584 67.201024 30.068736 67.137536 67.710976-0.065536 38.0416-30.02368 67.528704-68.470784 67.393536-37.20192-0.131072-66.746368-30.380032-66.629632-68.216832 0.116736-37.36576 30.183424-66.957312 67.96288-66.88768z m40.994816 67.745792c0.069632-23.47008-17.63328-41.44128-40.962048-41.588736-23.51104-0.147456-41.61536 17.4592-41.846784 40.701952-0.239616 23.990272 17.620992 42.119168 41.467904 42.094592 23.437312-0.024576 41.273344-17.805312 41.340928-41.207808zM591.837184 477.652992c-0.120832 37.892096-30.251008 67.2768-68.78208 67.080192-37.0688-0.186368-66.492416-30.593024-66.316288-68.52608 0.172032-37.216256 30.406656-66.697216 68.274176-66.574336 37.312512 0.120832 66.945024 30.283776 66.824192 68.020224z m-26.138624-0.436224c0.01024-23.42912-17.760256-41.332736-41.125888-41.426944-23.496704-0.094208-41.506816 17.559552-41.684992 40.863744-0.18432 23.98208 17.7152 42.012672 41.629696 41.9328 23.402496-0.077824 41.168896-17.926144 41.181184-41.3696zM702.976 409.632768c37.414912 0.086016 67.119104 30.134272 67.037184 67.80928-0.08192 37.992448-30.09536 67.446784-68.569088 67.295232-37.152768-0.149504-66.666496-30.45376-66.527232-68.315136 0.13312-37.316608 30.257152-66.875392 68.059136-66.789376z m-0.626688 26.157056c-23.414784 0.038912-41.238528 17.854464-41.285632 41.261056-0.047104 23.476224 17.649664 41.402368 41.007104 41.53344 23.957504 0.13312 41.9328-17.823744 41.801728-41.76896-0.126976-23.349248-18.057216-41.064448-41.5232-41.025536z" fill="" p-id="8481"></path></svg>