<?xml version="1.0" standalone="no"?><!DOCTYPE svg PUBLIC "-//W3C//DTD SVG 1.1//EN" "http://www.w3.org/Graphics/SVG/1.1/DTD/svg11.dtd"><svg t="1537363529418" class="icon" style="" viewBox="0 0 1024 1024" version="1.1" xmlns="http://www.w3.org/2000/svg" p-id="6229" xmlns:xlink="http://www.w3.org/1999/xlink" width="16" height="16"><defs><style type="text/css"></style></defs><path d="M1007.88 386.32L785.65 25.21A27.76 27.76 0 0 0 762 12H262a27.76 27.76 0 0 0-23.65 13.21L16.12 386.32a27.78 27.78 0 0 0 2.06 32l472.22 583.33a27.77 27.77 0 0 0 43.19 0l472.22-583.33a27.78 27.78 0 0 0 2.07-32zM512 940.09L73.74 398.69 277.52 67.56h469l203.74 331.13z" p-id="6230"></path><path d="M255.82 406.29a27.77 27.77 0 1 0-43.19 34.94l277.78 343.15a27.77 27.77 0 0 0 43.19 0l277.77-343.15a27.77 27.77 0 1 0-43.19-34.94L512 722.75z" p-id="6231"></path></svg>